HIERARCHY
ROOT Hips
{
	OFFSET 0.000000 0.000000 0.000000
	CHANNELS 6 Xposition Yposition Zposition Xrotation Yrotation Zrotation
	JOINT LeftUpLeg_virtual
	{
		OFFSET 0.000000 0.000000 0.000000
		CHANNELS 3 Xrotation Yrotation Zrotation
		JOINT LeftUpLeg
		{
			OFFSET 11.394100 -6.187798 -0.413800
			CHANNELS 3 Xrotation Yrotation Zrotation
			JOINT LeftLeg
			{
				OFFSET 0.430247 -32.302673 3.732800
				CHANNELS 3 Xrotation Yrotation Zrotation
				JOINT LeftFoot
				{
					OFFSET -0.430247 -48.264931 -6.423300
					CHANNELS 3 Xrotation Yrotation Zrotation
					JOINT LeftToeBase
					{
						OFFSET 4.230900 -16.068199 23.438400
						CHANNELS 3 Xrotation Yrotation Zrotation
						JOINT LeftToe_End
						{
							OFFSET 4.510700 0.695400 19.974600
							CHANNELS 3 Xrotation Yrotation Zrotation
							End Site
							{
								OFFSET 0 0 0
							}
						}
					}
				}
			}
		}
	}
	JOINT RightUpLeg_virtual
	{
		OFFSET 0.000000 0.000000 0.000000
		CHANNELS 3 Xrotation Yrotation Zrotation
		JOINT RightUpLeg
		{
			OFFSET -11.333700 -6.187798 -0.413800
			CHANNELS 3 Xrotation Yrotation Zrotation
			JOINT RightLeg
			{
				OFFSET -0.430392 -32.302628 3.733000
				CHANNELS 3 Xrotation Yrotation Zrotation
				JOINT RightFoot
				{
					OFFSET 0.430392 -48.264973 -6.423500
					CHANNELS 3 Xrotation Yrotation Zrotation
					JOINT RightToeBase
					{
						OFFSET -4.230900 -16.068199 23.438400
						CHANNELS 3 Xrotation Yrotation Zrotation
						JOINT RightToe_End
						{
							OFFSET -4.510700 0.695400 19.974600
							CHANNELS 3 Xrotation Yrotation Zrotation
							End Site
							{
								OFFSET 0 0 0
							}
						}
					}
				}
			}
		}
	}
	JOINT Spine_virtual
	{
		OFFSET 0.000000 0.000000 0.000000
		CHANNELS 3 Xrotation Yrotation Zrotation
		JOINT Spine
		{
			OFFSET -0.002400 12.777504 0.315300
			CHANNELS 3 Xrotation Yrotation Zrotation
			JOINT Spine1
			{
				OFFSET -0.002067 5.816869 0.032633
				CHANNELS 3 Xrotation Yrotation Zrotation
				JOINT Spine1_split
				{
					OFFSET -0.002067 5.816869 0.032633
					CHANNELS 3 Xrotation Yrotation Zrotation
					JOINT Spine2
					{
						OFFSET -0.002067 5.816869 0.032633
						CHANNELS 3 Xrotation Yrotation Zrotation
						JOINT Neck_virtual
						{
							OFFSET 0.000000 0.000000 0.000000
							CHANNELS 3 Xrotation Yrotation Zrotation
							JOINT Neck
							{
								OFFSET -0.003700 21.199493 -0.826900
								CHANNELS 3 Xrotation Yrotation Zrotation
								JOINT Head
								{
									OFFSET 0.000000 20.442200 4.834800
									CHANNELS 3 Xrotation Yrotation Zrotation
									JOINT HeadTop_End
									{
										OFFSET 0.000000 34.668396 4.968400
										CHANNELS 3 Xrotation Yrotation Zrotation
										End Site
										{
											OFFSET 0 0 0
										}
									}
								}
							}
						}
						JOINT LeftShoulder_virtual
						{
							OFFSET 0.000000 0.000000 0.000000
							CHANNELS 3 Xrotation Yrotation Zrotation
							JOINT LeftShoulder
							{
								OFFSET 3.288150 8.794197 -1.372250
								CHANNELS 3 Xrotation Yrotation Zrotation
								JOINT LeftShoulder_split
								{
									OFFSET 3.288150 8.794197 -1.372250
									CHANNELS 3 Xrotation Yrotation Zrotation
									JOINT LeftArm
									{
										OFFSET 11.953299 -2.279007 -0.146200
										CHANNELS 3 Xrotation Yrotation Zrotation
										JOINT LeftForeArm
										{
											OFFSET 18.448900 0.000000 0.000000
											CHANNELS 3 Xrotation Yrotation Zrotation
											JOINT LeftHand
											{
												OFFSET 29.527798 0.000000 0.000000
												CHANNELS 3 Xrotation Yrotation Zrotation
												End Site
												{
													OFFSET 0 0 0
												}
											}
										}
									}
								}
							}
						}
						JOINT RightShoulder_virtual
						{
							OFFSET 0.000000 0.000000 0.000000
							CHANNELS 3 Xrotation Yrotation Zrotation
							JOINT RightShoulder
							{
								OFFSET -3.249400 8.794197 -1.372250
								CHANNELS 3 Xrotation Yrotation Zrotation
								JOINT RightShoulder_split
								{
									OFFSET -3.249400 8.794197 -1.372250
									CHANNELS 3 Xrotation Yrotation Zrotation
									JOINT RightArm
									{
										OFFSET -11.953299 -2.279007 -0.146200
										CHANNELS 3 Xrotation Yrotation Zrotation
										JOINT RightForeArm
										{
											OFFSET -18.448900 0.000000 0.000000
											CHANNELS 3 Xrotation Yrotation Zrotation
											JOINT RightHand
											{
												OFFSET -29.527802 0.000000 0.000000
												CHANNELS 3 Xrotation Yrotation Zrotation
												End Site
												{
													OFFSET 0 0 0
												}
											}
										}
									}
								}
							}
						}
					}
				}
			}
		}
	}
}
MOTION
Frames: 6
Frame Time: 0.03333333
4.750219 102.351822 -6.316460 0.000000 0.000000 0.000000 -20.040226 -31.113161 -12.481963 -3.875310 19.003499 -0.139873 25.000852 9.829702 3.225564 -3.321574 3.562046 -3.675588 -10.111365 -2.974294 -0.305007 0.000000 0.000000 0.000000 -18.773255 -30.175352 -11.995722 7.639579 -9.214099 -0.220451 16.232115 16.421306 -4.622432 -12.334080 -23.578892 12.735931 -1.347347 9.705299 -25.132181 0.000000 0.000000 0.000000 -19.799935 -29.121550 -13.612041 8.689850 -3.670660 -0.772417 3.713857 -0.487984 -0.858678 0.118090 0.144345 -0.015539 0.000000 0.000000 0.000000 5.949049 1.416139 -0.695678 7.543609 7.630732 3.939417 -12.962193 -24.620021 14.157137 0.000000 0.000000 0.000000 6.034061 -0.695407 -0.917878 3.280888 -6.144620 -12.751330 6.827885 -8.842011 0.175707 -27.881182 12.694148 -34.153760 14.305471 -53.677780 10.436825 0.000000 0.000000 0.000000 4.645011 -0.728043 -0.221550 -2.835583 8.617292 20.201729 7.923154 1.758007 0.193470 -9.135048 1.582017 57.534911 -4.367298 41.405191 1.432685 0.000000 0.000000 0.000000 
5.440384 102.421478 -5.514679 0.000000 0.000000 0.000000 -20.603216 -33.930467 -13.373178 -3.258494 20.385495 -0.736822 24.089497 10.217656 3.035501 -3.630827 4.924723 -2.140715 -8.182451 -2.533211 -0.529023 0.000000 0.000000 0.000000 -19.253928 -32.524391 -12.821611 6.299255 -9.134411 -0.897903 16.155557 16.597780 -4.821705 -10.532220 -22.938996 13.152510 -2.345741 10.202024 -25.035816 0.000000 0.000000 0.000000 -20.430059 -31.821271 -14.613523 8.798679 -3.645961 -1.090904 3.634986 -0.523066 -0.918850 0.117614 0.115348 -0.011397 0.000000 0.000000 0.000000 5.881444 1.400468 -0.693550 7.495551 7.895308 3.856877 -13.133165 -23.408578 14.088044 0.000000 0.000000 0.000000 6.015227 -0.694009 -0.896665 3.294893 -6.162909 -12.689076 6.684558 -8.885183 0.036878 -27.773567 12.702471 -33.919809 14.230074 -53.590556 10.359003 0.000000 0.000000 0.000000 4.607227 -0.761447 -0.234809 -2.872203 8.789629 20.412147 8.065941 1.710725 0.218946 -9.526772 1.763453 57.642733 -4.417166 41.147617 1.349591 0.000000 0.000000 0.000000 
6.186185 102.461182 -4.723286 0.000000 0.000000 0.000000 -21.392649 -36.636025 -14.426355 -2.568164 21.370559 -1.253112 23.427168 10.113715 2.849017 -4.082691 5.929554 -1.481718 -6.914715 -2.102653 -0.827548 0.000000 0.000000 0.000000 -19.954761 -35.196607 -13.825996 5.007965 -9.098412 -1.374385 16.220217 16.260459 -4.897366 -9.236183 -22.385351 12.804185 -3.011174 10.570908 -24.236945 0.000000 0.000000 0.000000 -21.028617 -34.512987 -15.697827 8.838882 -3.631710 -1.380864 3.560275 -0.562001 -0.961488 0.137711 0.083592 -0.003338 0.000000 0.000000 0.000000 5.859896 1.369309 -0.677472 7.467395 8.190523 3.790678 -13.484629 -22.170850 13.981957 0.000000 0.000000 0.000000 6.036958 -0.697403 -0.863444 3.325483 -6.090067 -12.600564 6.604559 -8.940682 -0.081698 -27.690980 12.657444 -33.757759 14.154790 -53.571096 10.282935 0.000000 0.000000 0.000000 4.618297 -0.804912 -0.253287 -2.908495 8.960393 20.605573 8.243462 1.770593 0.243921 -9.873347 1.955700 57.740821 -4.441046 40.930277 1.240607 0.000000 0.000000 0.000000 
6.951951 102.455902 -3.934731 0.000000 0.000000 0.000000 -22.393246 -39.090470 -15.667448 -1.969091 22.144698 -1.585362 23.045465 9.698595 2.668999 -4.529886 6.532387 -1.570299 -6.466853 -1.668321 -1.353484 0.000000 0.000000 0.000000 -20.877860 -38.117920 -15.072370 3.772691 -8.959838 -1.548730 16.483726 15.417614 -4.867663 -8.434860 -21.935569 11.795303 -3.219230 10.720110 -22.656771 0.000000 0.000000 0.000000 -21.656479 -37.198535 -16.895583 8.808866 -3.626995 -1.605468 3.486390 -0.604982 -0.994683 0.169273 0.045220 0.010363 0.000000 0.000000 0.000000 5.894207 1.331030 -0.655677 7.453144 8.502241 3.778935 -13.951923 -20.983419 13.933677 0.000000 0.000000 0.000000 6.093482 -0.706061 -0.829614 3.368685 -5.927582 -12.498137 6.599048 -9.002497 -0.139245 -27.654415 12.576161 -33.683153 14.096997 -53.577660 10.215733 0.000000 0.000000 0.000000 4.658211 -0.857411 -0.278887 -2.948863 9.120714 20.809652 8.454032 1.880918 0.228665 -10.159167 2.155230 57.807286 -4.430092 40.733957 1.104817 0.000000 0.000000 0.000000 
7.721854 102.403389 -3.146488 0.000000 0.000000 0.000000 -23.484210 -41.401028 -17.089608 -1.292500 23.051392 -1.766748 22.829334 9.375661 2.510670 -5.148479 6.792191 -1.638176 -6.474478 -1.334292 -1.838102 0.000000 0.000000 0.000000 -21.971083 -41.135788 -16.537992 2.570931 -8.593794 -1.446188 17.026707 14.282369 -4.768001 -8.025751 -21.517912 10.664035 -3.303860 10.699301 -20.486186 0.000000 0.000000 0.000000 -22.354362 -39.823114 -18.203064 8.760137 -3.631328 -1.748106 3.411879 -0.646139 -1.038905 0.188749 -0.002420 0.030851 0.000000 0.000000 0.000000 5.988747 1.292023 -0.641855 7.437051 8.806977 3.838185 -14.481307 -19.911871 14.011033 0.000000 0.000000 0.000000 6.165563 -0.717885 -0.810770 3.422734 -5.679943 -12.383990 6.648160 -9.083105 -0.148031 -27.689747 12.485831 -33.683870 14.052283 -53.572442 10.158679 0.000000 0.000000 0.000000 4.695463 -0.920404 -0.311782 -2.997474 9.259885 21.034811 8.681137 1.966596 0.170272 -10.383200 2.355716 57.857672 -4.390129 40.555905 0.959049 0.000000 0.000000 0.000000 
8.417142 102.330154 -2.454639 0.000000 0.000000 0.000000 -24.631148 -43.727899 -18.674588 -0.628902 24.347186 -1.722411 22.782231 9.205886 2.301534 -5.978087 6.715649 -1.471574 -6.078322 -1.135378 -2.183982 0.000000 0.000000 0.000000 -23.180112 -44.045523 -18.164683 1.415701 -7.998427 -1.136869 18.073741 12.970515 -4.649783 -7.908886 -21.154614 9.844435 -3.482621 10.527056 -18.102103 0.000000 0.000000 0.000000 -23.100608 -42.316031 -19.561715 8.761686 -3.658782 -1.821448 3.330371 -0.678344 -1.102590 0.191791 -0.060157 0.036713 0.000000 0.000000 0.000000 6.119763 1.258616 -0.642242 7.400412 9.089378 3.959236 -15.034814 -18.983555 14.240356 0.000000 0.000000 0.000000 6.237319 -0.726387 -0.818633 3.486923 -5.363473 -12.291129 6.727352 -9.210937 -0.110924 -27.811823 12.399350 -33.738764 14.021056 -53.531444 10.118445 0.000000 0.000000 0.000000 4.708702 -0.990677 -0.355257 -3.053159 9.354437 21.262963 8.907108 2.028162 0.055319 -10.552618 2.555655 57.925161 -4.332250 40.405483 0.824670 0.000000 0.000000 0.000000 
